<svg width="156" height="101" xmlns="http://www.w3.org/2000/svg" xmlns:xlink="http://www.w3.org/1999/xlink"><defs><path id="a" d="M.163.3H9.68V13H.163z"/><path id="c" d="M.934.407h11.55V13H.934z"/><path id="e" d="M.131.3h8.312V13H.131z"/><path id="g" d="M.453.406h8.365V13H.453z"/><path id="i" d="M0 .35h124.774v100H0z"/></defs><g fill="none" fill-rule="evenodd"><g transform="translate(69 87.65)"><mask id="b" fill="#fff"><use xlink:href="#a"/></mask><path d="M5.254 6.362c.954 0 1.421-.773 1.421-1.511 0-.756-.467-1.565-1.42-1.565H3.238v3.076h2.015zm0-6.062C8.24.3 9.715 2.638 9.68 4.869c-.036 2.195-1.51 4.389-4.425 4.389H3.24V13H.163V.3h5.091z" fill="#000" mask="url(#b)"/></g><path fill="#000" d="M95.968 90.792H93.88v7.105h2.087v2.753h-7.25v-2.753h2.087v-7.105h-2.087v-2.807h7.25z"/><g transform="translate(105 87.65)"><mask id="d" fill="#fff"><use xlink:href="#c"/></mask><path fill="#000" mask="url(#d)" d="M12.465.695l-4.03 5.919 4.049 6.135V13H9.173L6.69 9.169 4.244 13H.934v-.252l4.03-6.135L.987.767v-.36h3.239l2.465 3.58 2.5-3.58h3.274z"/></g><g transform="translate(128 87.65)"><mask id="f" fill="#fff"><use xlink:href="#e"/></mask><path fill="#000" mask="url(#f)" d="M3.226 10.031h5.217v2.97H.131V.3h8.294v2.967H3.226v1.764h5.091v2.986h-5.09z"/></g><g transform="translate(147 87.65)"><mask id="h" fill="#fff"><use xlink:href="#g"/></mask><path fill="#000" mask="url(#h)" d="M3.53 10.031h5.288v2.97H.453V.405H3.53z"/></g><g transform="translate(0 -.35)"><mask id="j" fill="#fff"><use xlink:href="#i"/></mask><path d="M93.033.784c-11.642-1.767-22.647 1.973-30.64 9.11C54.979 3.258 44.925-.473 34.027.505 16.23 2.105 1.859 16.428.173 34.259-1.826 55.39 13.769 73.407 33.964 75.29l-11.518 25.06h21.132a9.91 9.91 0 0 0 9.002-5.778l12.247-26.647a37.216 37.216 0 0 0 22.481 7.53c21.846 0 39.382-18.836 37.297-41.155-1.59-16.995-14.732-30.958-31.572-33.516M25.098 37.903c0-6.847 5.538-12.397 12.368-12.397 6.828 0 12.365 5.55 12.365 12.397S44.294 50.3 37.466 50.3c-6.83 0-12.368-5.55-12.368-12.397M87.308 50.3c-6.831 0-12.367-5.55-12.367-12.397s5.536-12.397 12.367-12.397c6.83 0 12.368 5.55 12.368 12.397S94.138 50.3 87.308 50.3" fill="#E43F3B" mask="url(#j)"/></g><path d="M62.475 9.16c-.895-.463-1.804-.909-2.716-1.357.912.449 1.821.894 2.716 1.358" fill="#221F1F"/><path d="M48.622 32.222c.67 1.414 1.172 3.27 1.2 4.916.042-10.402 4.985-21.121 12.572-27.597a34.388 34.388 0 0 0-5.089-3.83c-4.71 7.505-7.908 17.337-8.683 26.511M33.935 74.933L28.57 86.678c25.72-1.326 45.247-22.814 44.763-48.995.338 18.39-13.126 33.777-30.611 37.01-2.218.409-7.637.347-8.787.24" fill="#CD2035"/></g></svg>